# Blender v2.79 (sub 0) OBJ File: 'Cancel.blend'
# www.blender.org
mtllib Cancel.mtl
o Cancel_X
v -0.008263 -0.000096 -0.003212
v 0.000012 -0.008371 -0.003212
v -0.008263 -0.000096 0.003291
v 0.000012 -0.008371 0.003291
v 0.000012 0.008179 0.003291
v 0.008287 -0.000096 0.003291
v 0.000012 0.008179 -0.003212
v 0.008287 -0.000096 -0.003212
v 0.039309 -0.031118 -0.003212
v 0.031034 -0.039393 -0.003212
v 0.039309 -0.031118 0.003291
v 0.031034 -0.039393 0.003291
v -0.031315 0.039506 -0.003212
v -0.039590 0.031231 -0.003212
v -0.039590 0.031231 0.003291
v -0.031315 0.039506 0.003291
v -0.039517 -0.031349 -0.003212
v -0.031242 -0.039624 -0.003212
v -0.031242 -0.039624 0.003291
v -0.039517 -0.031349 0.003291
v 0.031266 0.039433 0.003291
v 0.039541 0.031158 0.003291
v 0.039541 0.031158 -0.003212
v 0.031266 0.039433 -0.003212
vt 0.375000 0.000000
vt 0.625000 0.000000
vt 0.375000 0.250000
vt 0.625000 0.250000
vt 0.375000 0.250000
vt 0.625000 0.250000
vt 0.375000 0.500000
vt 0.625000 0.500000
vt 0.375000 0.500000
vt 0.625000 0.500000
vt 0.375000 0.750000
vt 0.625000 0.750000
vt 0.375000 0.750000
vt 0.625000 0.750000
vt 0.375000 1.000000
vt 0.625000 1.000000
vt 0.625000 0.000000
vt 0.875000 0.000000
vt 0.625000 0.250000
vt 0.875000 0.250000
vt 0.125000 0.000000
vt 0.375000 0.000000
vt 0.125000 0.250000
vt 0.375000 0.250000
vt 0.625000 0.000000
vt 0.875000 0.000000
vt 0.875000 0.250000
vt 0.125000 0.000000
vt 0.375000 0.000000
vt 0.125000 0.250000
vn -0.8165 0.0000 -0.5773
vn 0.0000 -0.8165 -0.5773
vn -0.8165 0.0000 0.5773
vn 0.0000 -0.8165 0.5773
vn -0.4264 0.0000 0.9045
vn 0.0000 -0.4264 0.9045
vn 0.0000 0.4264 0.9045
vn 0.4264 0.0000 0.9045
vn 0.0000 0.8165 0.5773
vn 0.8165 0.0000 0.5773
vn 0.0000 0.8165 -0.5773
vn 0.8165 0.0000 -0.5773
vn 0.0000 0.4264 -0.9045
vn 0.4264 0.0000 -0.9045
vn -0.4264 0.0000 -0.9045
vn 0.0000 -0.4264 -0.9045
usemtl crosshairMaterial
s 1
f 17/1/1 18/2/2 20/3/3
f 20/3/3 18/2/2 19/4/4
f 3/5/5 4/6/6 5/7/7
f 5/7/7 4/6/6 6/8/8
f 21/9/9 22/10/10 24/11/11
f 24/11/11 22/10/10 23/12/12
f 7/13/13 8/14/14 1/15/15
f 1/15/15 8/14/14 2/16/16
f 10/17/2 9/18/12 12/19/4
f 12/19/4 9/18/12 11/20/10
f 13/21/11 14/22/1 16/23/9
f 16/23/9 14/22/1 15/24/3
f 2/25/16 8/26/14 10/17/2
f 10/17/2 8/26/14 9/18/12
f 8/26/14 6/27/8 9/18/12
f 9/18/12 6/27/8 11/20/10
f 6/27/8 4/6/6 11/20/10
f 11/20/10 4/6/6 12/19/4
f 4/6/6 2/25/16 12/19/4
f 12/19/4 2/25/16 10/17/2
f 7/28/13 1/29/15 13/21/11
f 13/21/11 1/29/15 14/22/1
f 1/29/15 3/5/5 14/22/1
f 14/22/1 3/5/5 15/24/3
f 3/5/5 5/30/7 15/24/3
f 15/24/3 5/30/7 16/23/9
f 5/30/7 7/28/13 16/23/9
f 16/23/9 7/28/13 13/21/11
f 1/29/15 2/25/16 17/1/1
f 17/1/1 2/25/16 18/2/2
f 2/25/16 4/6/6 18/2/2
f 18/2/2 4/6/6 19/4/4
f 4/6/6 3/5/5 19/4/4
f 19/4/4 3/5/5 20/3/3
f 3/5/5 1/29/15 20/3/3
f 20/3/3 1/29/15 17/1/1
f 5/7/7 6/8/8 21/9/9
f 21/9/9 6/8/8 22/10/10
f 6/8/8 8/14/14 22/10/10
f 22/10/10 8/14/14 23/12/12
f 8/14/14 7/13/13 23/12/12
f 23/12/12 7/13/13 24/11/11
f 7/13/13 5/7/7 24/11/11
f 24/11/11 5/7/7 21/9/9
