# Blender v2.79 (sub 0) OBJ File: 'NudgeRotation.blend'
# www.blender.org
mtllib NudgeRotation.mtl
g NudgeRotation_Arrow
v -0.037769 -0.027833 -0.005419
v -0.019410 -0.033579 -0.005393
v -0.000283 -0.035632 -0.005300
v 0.018877 -0.033915 -0.005174
v 0.037334 -0.028493 -0.004990
v -0.037827 -0.027917 0.004526
v -0.019468 -0.033663 0.004584
v -0.000340 -0.035716 0.004677
v 0.018820 -0.033999 0.004802
v 0.037276 -0.028577 0.004955
v 0.000574 0.062493 -0.004437
v 0.000517 0.062409 0.005508
vt 0.429688 0.312500
vt 0.437500 0.312500
vt 0.437500 0.688440
vt 0.429688 0.688440
vt 0.445313 0.312500
vt 0.445313 0.688440
vt 0.453125 0.312500
vt 0.453125 0.688440
vt 0.460938 0.312500
vt 0.460938 0.688440
vt 0.469517 0.003002
vt 0.500000 0.000000
vt 0.500000 0.150000
vt 0.440206 0.011894
vt 0.413192 0.026333
vt 0.389515 0.045765
vt 0.500000 1.000000
vt 0.469517 0.996998
vt 0.500000 0.837500
vt 0.440206 0.988106
vt 0.413192 0.973667
vt 0.389515 0.954235
vt 0.000000 0.000000
vt 1.000000 0.000000
vt 1.000000 1.000000
vt 0.000000 1.000000
vt 0.000000 0.000000
vt 1.000000 0.000000
vt 1.000000 1.000000
vt 0.000000 1.000000
vn -0.7414 -0.3392 -0.5790
vn -0.1447 -0.7064 -0.6928
vn -0.1522 -0.7183 0.6788
vn -0.7476 -0.3489 0.5651
vn -0.0024 -0.7219 -0.6919
vn -0.0103 -0.7336 0.6795
vn 0.1402 -0.7089 -0.6912
vn 0.1318 -0.7208 0.6804
vn 0.7419 -0.3522 -0.5705
vn 0.7348 -0.3619 0.5736
vn 0.0105 0.8418 -0.5397
vn 0.0041 0.8325 0.5540
usemtl wedgeMaterial
s 1
f 1/1/1 2/2/2 7/3/3 6/4/4
f 2/2/2 3/5/5 8/6/6 7/3/3
f 3/5/5 4/7/7 9/8/8 8/6/6
f 4/7/7 5/9/9 10/10/10 9/8/8
f 2/11/2 1/12/1 11/13/11
f 3/14/5 2/11/2 11/13/11
f 4/15/7 3/14/5 11/13/11
f 5/16/9 4/15/7 11/13/11
f 6/17/4 7/18/3 12/19/12
f 7/18/3 8/20/6 12/19/12
f 8/20/6 9/21/8 12/19/12
f 9/21/8 10/22/10 12/19/12
f 6/23/4 12/24/12 11/25/11 1/26/1
f 12/27/12 10/28/10 5/29/9 11/30/11
